<svg id="Capa_1" data-name="Capa 1" xmlns="http://www.w3.org/2000/svg" xmlns:xlink="http://www.w3.org/1999/xlink" viewBox="0 0 512 512"><defs><style>.cls-1{fill:none;}.cls-2{clip-path:url(#clip-path);}.cls-3{fill:#fff;}.cls-4{fill:#feeae6;}.cls-5{fill:#e0f7fa;}.cls-6{fill:#c5032b;}.cls-7{font-size:72px;fill:#26c6da;font-family:Bauhaus93, "Bauhaus 93";}</style><clipPath id="clip-path"><path class="cls-1" d="M324.51,260.12q0,30.93,0,61.86c0,5.42-.41,5.82-5.86,5.82h-122c-5.56,0-5.79-.23-5.79-5.76,0-41.38,0-82.77-.07-124.15,0-4.08.92-5.71,5.43-5.7q61.44.26,122.87,0c4.44,0,5.54,1.5,5.51,5.64C324.43,218.6,324.51,239.36,324.51,260.12Z"/></clipPath></defs><title>TicTacToe</title><g class="cls-2"><path class="cls-3" d="M512.73,511.85H.87V-.07H512.73ZM324.55,87.07h0q0,36.27,0,72.53c0,6.17,0,6.18-6.17,6.19H197.17c-6.32,0-6.33,0-6.34-6.43V19c0-2,.06-4-.1-6-.48-5.87-4.88-11-10-11.88C174.17.07,168.35,2.71,166,8.58a27.75,27.75,0,0,0-1.68,10q-.15,70.61-.07,141.22c0,6,0,6-6.08,6H20.8a45.83,45.83,0,0,0-4.69.07c-5.49.58-9.85,3.08-11.84,8.39A12.48,12.48,0,0,0,7.19,188c3.53,3.65,8.14,4.28,13,4.28q68.7,0,137.38,0c7.57,0,6.72-.69,6.73,6.51q0,61.23,0,122.45c0,6.53,0,6.54-6.52,6.55H19.93c-2.13,0-4.27,0-6.39.14-5.2.42-10,4.38-11.26,9.09-1.47,5.66.46,12,5.52,14.43a26.94,26.94,0,0,0,11.4,2.32c46.36.15,92.72.09,139.09.11,6,0,6,0,6,5.82q0,66.12,0,132.26a51,51,0,0,0,.81,8.44c.86,5,5.2,9.38,9.76,10.14,6.18,1,11.67-1.13,14-6.36a23.36,23.36,0,0,0,1.83-9.41q.18-67,.08-134c0-6.9,0-6.93,6.85-6.93H317.57c6.84,0,6.94.12,6.94,6.86q0,65.92,0,131.84c0,2.13,0,4.27.14,6.39a12.88,12.88,0,0,0,20,9.72c5.26-3.39,5.94-8.53,5.94-14.16q-.08-66.77,0-133.54c0-7.09,0-7.11,7.12-7.11h134c2.41,0,4.84,0,7.24-.28,9.11-.91,14.31-11.39,9.62-19.22-3.16-5.27-8-6.63-13.79-6.62q-69.12.14-138.24,0c-5.47,0-5.91-.4-5.91-5.75q0-62.07,0-124.15c0-5.57.08-5.61,5.8-5.61H493.77c1.43,0,2.85.07,4.27,0,7.55-.64,12.92-5.09,13.57-11.21,1-9.19-4.7-15.24-14.49-15.24q-69.76,0-139.52,0c-7,0-7,0-7-7.06q0-69.75,0-139.51a57.68,57.68,0,0,0-.32-7.67A12.37,12.37,0,0,0,338.59,1c-8.36-.41-14,4.8-14,13.51C324.48,38.72,324.55,62.9,324.55,87.07Z"/></g><rect class="cls-4" width="512" height="512"/><path class="cls-5" d="M323.55,86c0-24.18-.07-48.35,0-72.53,0-8.71,5.65-13.92,14-13.52a12.38,12.38,0,0,1,11.65,10.53,57.53,57.53,0,0,1,.32,7.66q0,69.77,0,139.52c0,7.05,0,7.05,7,7.05q69.76,0,139.52,0c9.79,0,15.48,6.05,14.49,15.24-.65,6.11-6,10.57-13.57,11.2-1.42.12-2.84.05-4.27.05H355.39c-5.72,0-5.8,0-5.8,5.61q0,62.07,0,124.15c0,5.35.44,5.75,5.91,5.75q69.12,0,138.24,0c5.82,0,10.63,1.35,13.79,6.62a12.87,12.87,0,0,1-9.62,19.22c-2.4.24-4.83.27-7.24.27q-67,0-134,0c-7.11,0-7.12,0-7.12,7.1q0,66.78,0,133.55c0,5.62-.68,10.77-5.94,14.16a12.88,12.88,0,0,1-20-9.72c-.17-2.12-.14-4.26-.14-6.39q0-65.92,0-131.84c0-6.75-.1-6.86-6.94-6.86H196.68c-6.83,0-6.85,0-6.85,6.93q0,67-.08,134a23.33,23.33,0,0,1-1.83,9.41c-2.38,5.23-7.87,7.39-14,6.36-4.56-.76-8.9-5.13-9.76-10.13a51,51,0,0,1-.81-8.45q-.08-66.12,0-132.26c0-5.77,0-5.82-6-5.82-46.37,0-92.73.05-139.09-.1A27.24,27.24,0,0,1,6.8,350.4C1.74,348-.19,341.63,1.28,336c1.22-4.7,6.06-8.66,11.26-9.08,2.12-.18,4.26-.14,6.39-.14H156.74c6.52,0,6.52,0,6.52-6.54q0-61.23,0-122.45c0-7.21.84-6.51-6.73-6.51q-68.68,0-137.38,0c-4.81,0-9.42-.63-12.95-4.28a12.5,12.5,0,0,1-2.92-13.78c2-5.3,6.35-7.81,11.84-8.39a45.83,45.83,0,0,1,4.69-.06H157.18c6.07,0,6.08,0,6.08-6q0-70.6.07-141.22a27.74,27.74,0,0,1,1.68-10C167.35,1.63,173.17-1,179.76.07c5.09.82,9.49,6,10,11.88.16,2,.1,4,.1,6V158.29c0,6.41,0,6.42,6.34,6.42H317.34c6.14,0,6.17,0,6.17-6.18q0-36.27,0-72.53Zm0,173.05c0-20.76-.08-41.53.07-62.29,0-4.14-1.07-5.66-5.51-5.64q-61.44.24-122.87,0c-4.51,0-5.45,1.61-5.43,5.7.11,41.38.06,82.76.07,124.14,0,5.53.23,5.77,5.79,5.77q61,0,122,0c5.45,0,5.85-.39,5.86-5.81Q323.54,290,323.51,259.05Z"/><path class="cls-6" d="M57.32,486.55c47.19-16.41,48.46-84.88.31-103.26,18.27-6,40.71-.17,55.06,16.83,15.42,18.25,17.07,45.22,3.62,64.61C101.18,486.55,77.12,492.29,57.32,486.55Z"/><path class="cls-6" d="M91.17,142c-6.15-6.56-11.3-12.31-16.79-17.71a9.77,9.77,0,0,0-6-2.48c-7.69-.29-15.4-.11-23.67-.11,0-6.44-.43-12.47.12-18.4C45.45,96.83,43.49,92,38.48,88c-4.55-3.66-8.7-7.83-13.94-12.59,6.37-6,11.65-11.19,17.15-16.13a9.12,9.12,0,0,0,3.12-7.73c-.2-7.37-.07-14.76-.07-22.64,8.07,0,15.62.21,23.14-.13A11.2,11.2,0,0,0,74.65,26C80.06,20.76,85,15.05,91,8.63,97.17,15.18,102.2,20.84,107.65,26a11.39,11.39,0,0,0,6.8,2.76c7.39.35,14.81.13,23,.13,0,7.32.22,14.37-.09,21.4a11.25,11.25,0,0,0,4,9.73c5.2,4.6,10.14,9.5,15.64,14.69-6,6.07-11.43,11.27-16.43,16.88a12.54,12.54,0,0,0-3,7.19c-.39,7.38-.14,14.79-.14,22.85-6.18,0-12.06.49-17.81-.13-6.84-.74-11.82,1.52-16.05,6.73C100,132.7,95.93,136.74,91.17,142Zm35-66.64a35,35,0,1,0-35.18,35A35.16,35.16,0,0,0,126.2,75.33Z"/><path class="cls-6" d="M114,75.12A23.32,23.32,0,1,1,90.46,51.91,23.56,23.56,0,0,1,114,75.12Z"/><path class="cls-6" d="M427.17,502c-6.15-6.56-11.3-12.31-16.79-17.71a9.77,9.77,0,0,0-6-2.48c-7.69-.29-15.4-.11-23.67-.11,0-6.44-.43-12.47.12-18.4.59-6.44-1.37-11.23-6.38-15.25-4.55-3.66-8.7-7.83-13.94-12.59,6.37-6,11.65-11.19,17.15-16.13a9.12,9.12,0,0,0,3.12-7.73c-.2-7.37-.07-14.76-.07-22.64,8.07,0,15.62.21,23.14-.13a11.2,11.2,0,0,0,6.77-2.76c5.41-5.28,10.37-11,16.31-17.41,6.21,6.55,11.24,12.21,16.69,17.41a11.39,11.39,0,0,0,6.8,2.76c7.39.35,14.81.13,23,.13,0,7.32.22,14.37-.09,21.4a11.25,11.25,0,0,0,4,9.73c5.2,4.6,10.14,9.5,15.64,14.69-6,6.07-11.43,11.27-16.43,16.88a12.54,12.54,0,0,0-3,7.19c-.39,7.38-.14,14.79-.14,22.85-6.18,0-12.06.49-17.81-.13-6.84-.74-11.82,1.52-16.05,6.73C436,492.7,431.93,496.74,427.17,502Zm35-66.64a35,35,0,1,0-35.18,35A35.16,35.16,0,0,0,462.2,435.33Z"/><path class="cls-6" d="M450,435.12a23.32,23.32,0,1,1-23.54-23.21A23.56,23.56,0,0,1,450,435.12Z"/><path class="cls-6" d="M392.32,126.55c47.19-16.41,48.46-84.88.31-103.26,18.27-6,40.71-.17,55.06,16.83,15.42,18.25,17.07,45.22,3.62,64.61C436.18,126.55,412.12,132.29,392.32,126.55Z"/><text class="cls-7" transform="translate(70.29 276.05)">Tic Tac Toe</text></svg>